<svg width="1811" height="348" viewBox="0 0 1811 348" fill="none" xmlns="http://www.w3.org/2000/svg">
<path d="M1017.41 51.5074L854.145 343.457C850.774 349.486 842.113 349.521 838.692 343.523L672.188 51.5346C668.459 44.9988 674.049 37.0808 681.456 38.4059L844.899 67.6189C845.942 67.8052 847.009 67.8033 848.052 67.6134L1008.08 38.4467C1015.46 37.1012 1021.07 44.958 1017.41 51.5074V51.5074Z" fill="url(#paint0_linear_106_34)"/>
<path d="M922.755 0.0856799L801.934 23.7607C800.968 23.9498 800.093 24.4544 799.446 25.1951C798.799 25.9358 798.416 26.8707 798.358 27.8527L790.926 153.377C790.885 154.066 791.005 154.754 791.277 155.388C791.548 156.022 791.964 156.584 792.491 157.029C793.018 157.474 793.641 157.79 794.311 157.952C794.981 158.115 795.68 158.118 796.352 157.963L829.991 150.2C833.138 149.474 835.983 152.246 835.335 155.411L825.341 204.351C824.669 207.644 827.761 210.46 830.977 209.483L851.755 203.171C854.975 202.193 858.071 205.017 857.389 208.314L841.507 285.186C840.513 289.995 846.909 292.617 849.576 288.495L851.358 285.742L949.811 89.26C951.46 85.9704 948.616 82.2191 945.005 82.917L910.377 89.5994C907.124 90.2266 904.356 87.1963 905.274 84.014L927.874 5.66977C928.793 2.47925 926.014 -0.552424 922.757 0.0856799H922.755Z" fill="url(#paint1_linear_106_34)"/>
<path d="M321.592 112.794C317.43 111.366 313.232 110.043 309.003 108.826C309.713 105.923 310.367 103.055 310.948 100.238C320.479 53.972 314.248 16.6994 292.966 4.42752C272.561 -7.33714 239.191 4.9302 205.489 34.2609C202.167 37.1567 198.92 40.136 195.749 43.1959C193.626 41.1612 191.466 39.1659 189.269 37.2112C153.947 5.84998 118.543 -7.3677 97.2846 4.93936C76.8981 16.7407 70.8615 51.7795 79.442 95.6266C80.2957 99.9692 81.2596 104.289 82.3328 108.583C77.3213 110.007 72.4856 111.523 67.8577 113.136C26.446 127.575 0 150.201 0 173.671C0 197.91 28.391 222.224 71.523 236.966C75.0198 238.156 78.5457 239.259 82.0975 240.274C80.944 244.898 79.9199 249.554 79.0264 254.236C70.8462 297.322 77.2342 331.533 97.5657 343.259C118.565 355.369 153.81 342.923 188.128 312.923C190.91 310.484 193.632 307.976 196.29 305.401C199.724 308.715 203.249 311.931 206.862 315.048C240.106 343.653 272.937 355.204 293.249 343.445C314.228 331.3 321.047 294.549 312.194 249.835C311.497 246.332 310.715 242.847 309.849 239.382C312.324 238.648 314.754 237.893 317.122 237.108C361.962 222.253 391.137 198.234 391.137 173.671C391.137 150.115 363.837 127.336 321.592 112.794V112.794ZM311.867 221.249C309.728 221.956 307.534 222.639 305.298 223.304C300.347 207.632 293.667 190.969 285.492 173.752C293.293 156.945 299.716 140.494 304.528 124.925C308.529 126.083 312.411 127.304 316.155 128.592C352.35 141.053 374.428 159.475 374.428 173.671C374.428 188.79 350.584 208.419 311.867 221.249V221.249ZM295.803 253.081C299.718 272.851 300.275 290.727 297.683 304.703C295.354 317.261 290.67 325.632 284.876 328.986C272.551 336.121 246.19 326.847 217.761 302.382C214.4 299.484 211.12 296.494 207.926 293.413C218.948 281.36 229.962 267.348 240.713 251.785C259.622 250.107 277.486 247.363 293.686 243.618C294.483 246.838 295.192 249.994 295.803 253.081V253.081ZM133.347 327.753C121.304 332.005 111.712 332.127 105.914 328.784C93.5764 321.669 88.4473 294.199 95.4435 257.353C96.2751 252.998 97.2274 248.668 98.2991 244.367C114.32 247.912 132.055 250.46 151.008 251.997C161.831 267.226 173.164 281.223 184.584 293.479C182.157 295.828 179.673 298.116 177.133 300.342C161.957 313.607 146.75 323.019 133.347 327.753V327.753ZM76.9287 221.156C57.8562 214.636 42.1053 206.164 31.3093 196.919C21.6073 188.612 16.7104 180.363 16.7104 173.671C16.7104 159.428 37.9433 141.261 73.358 128.914C77.6559 127.417 82.154 126.004 86.8217 124.678C91.717 140.598 98.1372 157.244 105.885 174.077C98.0363 191.159 91.5245 208.071 86.5818 224.179C83.3398 223.251 80.1211 222.242 76.9287 221.156V221.156ZM95.8408 92.4165C88.4901 54.8506 93.3717 26.513 105.657 19.4007C118.742 11.8255 147.677 22.6261 178.175 49.7062C180.164 51.4761 182.12 53.2818 184.044 55.1225C172.679 67.3257 161.451 81.2187 150.724 96.3569C132.328 98.062 114.719 100.8 98.5298 104.468C97.5324 100.475 96.6357 96.4568 95.8408 92.418V92.4165ZM264.56 134.079C260.736 127.474 256.77 120.952 252.665 114.517C265.145 116.096 277.102 118.19 288.33 120.751C284.96 131.556 280.758 142.852 275.813 154.433C272.198 147.574 268.446 140.788 264.56 134.079V134.079ZM195.756 67.0644C203.463 75.4143 211.182 84.7359 218.774 94.8504C203.373 94.1231 187.946 94.12 172.545 94.8413C180.144 84.8199 187.929 75.5105 195.756 67.0644ZM126.511 134.193C122.674 140.848 118.992 147.592 115.469 154.419C110.605 142.879 106.441 131.532 103.042 120.574C114.201 118.077 126.102 116.036 138.502 114.487C134.352 120.96 130.354 127.53 126.511 134.192V134.193ZM138.858 234.043C126.047 232.613 113.967 230.677 102.811 228.248C106.264 217.094 110.519 205.505 115.489 193.718C119.026 200.55 122.723 207.298 126.577 213.956C130.54 220.801 134.644 227.505 138.858 234.043ZM196.218 281.453C188.297 272.909 180.398 263.456 172.684 253.29C180.174 253.583 187.808 253.733 195.568 253.733C203.541 253.733 211.422 253.554 219.179 253.209C211.562 263.559 203.872 273.025 196.218 281.453ZM275.97 193.116C281.198 205.033 285.605 216.561 289.104 227.524C277.764 230.112 265.519 232.196 252.618 233.744C256.752 227.19 260.755 220.555 264.625 213.842C268.56 207.018 272.343 200.108 275.97 193.116V193.116ZM250.152 205.493C244.227 215.786 237.969 225.883 231.388 235.768C219.467 236.612 207.519 237.032 195.568 237.026C183.396 237.026 171.556 236.647 160.155 235.907C153.402 226.044 147.025 215.93 141.037 205.585H141.038C135.078 195.295 129.511 184.782 124.349 174.069C129.498 163.354 135.048 152.836 140.988 142.539L140.986 142.54C146.924 132.239 153.25 122.168 159.952 112.348C171.584 111.468 183.512 111.009 195.567 111.009H195.568C207.678 111.009 219.622 111.472 231.25 112.358C237.885 122.164 244.171 132.201 250.097 142.45C256.056 152.725 261.68 163.192 266.959 173.833C261.734 184.582 256.128 195.143 250.152 205.493V205.493ZM284.621 18.9026C297.718 26.4565 302.812 56.9178 294.583 96.8642C294.057 99.4127 293.467 102.009 292.826 104.641C276.596 100.895 258.975 98.1094 240.526 96.3783C229.779 81.0735 218.642 67.1591 207.463 55.1134C210.393 52.2891 213.393 49.5381 216.459 46.8628C245.336 21.7338 272.324 11.8118 284.621 18.9026V18.9026ZM195.568 138.743C214.858 138.743 230.496 154.381 230.496 173.671C230.496 192.96 214.858 208.598 195.568 208.598C176.279 208.598 160.641 192.96 160.641 173.671C160.641 154.381 176.279 138.743 195.568 138.743V138.743Z" fill="#00D8FF"/>
<path d="M1302.33 317.389V263.976H1373.33V260.851H1302.33V212.123H1377.82V209H1299V320.512H1378.48V317.389H1302.33H1302.33ZM1442.51 240.236L1413.07 276.626L1384.31 240.236H1379.98L1411.08 278.969L1376.99 320.511H1380.98L1413.07 281.31L1445.33 320.511H1449.49L1415.23 278.967L1446.5 240.235H1442.51L1442.51 240.236ZM1459.47 348V298.023H1459.8C1461.8 305.312 1465.73 311.168 1471.61 315.594C1477.48 320.018 1484.96 322.231 1494.05 322.231C1499.93 322.231 1505.14 321.112 1509.69 318.874C1514.23 316.635 1518.03 313.59 1521.08 309.737C1524.12 305.884 1526.45 301.407 1528.06 296.305C1529.67 291.204 1530.47 285.841 1530.47 280.22C1530.47 274.18 1529.64 268.609 1527.98 263.508C1526.31 258.406 1523.9 253.98 1520.74 250.233C1517.58 246.484 1513.76 243.568 1509.27 241.487C1504.78 239.404 1499.71 238.363 1494.05 238.363C1489.73 238.363 1485.71 238.962 1482 240.159C1478.29 241.357 1474.99 243.048 1472.11 245.235C1469.21 247.438 1466.68 250.045 1464.62 252.965C1462.52 255.933 1460.91 259.187 1459.8 262.727H1459.47V240.236H1456.14V348H1459.47V348ZM1494.05 319.263C1483.63 319.263 1475.26 315.905 1468.95 309.189C1462.63 302.474 1459.47 292.816 1459.47 280.218C1459.47 275.012 1460.24 270.066 1461.8 265.381C1463.35 260.696 1465.59 256.583 1468.53 253.043C1471.47 249.502 1475.1 246.691 1479.42 244.609C1483.74 242.526 1488.62 241.485 1494.05 241.485C1499.6 241.485 1504.45 242.526 1508.6 244.609C1512.76 246.691 1516.2 249.529 1518.91 253.121C1521.63 256.713 1523.68 260.826 1525.07 265.459C1526.45 270.092 1527.15 275.012 1527.15 280.218C1527.15 284.904 1526.51 289.563 1525.23 294.196C1523.96 298.83 1521.99 302.994 1519.33 306.691C1516.67 310.387 1513.26 313.406 1509.1 315.749C1504.95 318.092 1499.93 319.263 1494.05 319.263V319.263ZM1548.76 320.512V275.064C1548.76 270.691 1549.43 266.421 1550.76 262.257C1552.09 258.093 1554.14 254.422 1556.91 251.247C1559.68 248.071 1563.2 245.572 1567.47 243.75C1571.74 241.927 1576.81 241.173 1582.69 241.485V238.362C1577.59 238.259 1573.12 238.778 1569.3 239.923C1565.47 241.069 1562.18 242.631 1559.41 244.609C1556.63 246.587 1554.42 248.904 1552.75 251.559C1551.09 254.211 1549.86 257.079 1549.1 260.071H1548.76V240.236H1545.44V320.513H1548.76V320.512ZM1586.84 280.999H1658.35C1658.57 275.48 1657.99 270.171 1656.6 265.069C1655.21 259.967 1653 255.437 1649.95 251.481C1646.9 247.525 1642.96 244.349 1638.14 241.954C1633.32 239.559 1627.58 238.362 1620.93 238.362C1616.16 238.362 1611.51 239.299 1606.96 241.174C1602.42 243.048 1598.43 245.78 1594.99 249.372C1591.55 252.964 1588.78 257.363 1586.68 262.571C1584.57 267.776 1583.52 273.71 1583.52 280.374C1583.52 286.309 1584.24 291.854 1585.68 297.007C1587.12 302.161 1589.34 306.639 1592.33 310.439C1595.32 314.239 1599.18 317.181 1603.89 319.263C1608.6 321.345 1614.28 322.334 1620.93 322.23C1630.69 322.23 1638.89 319.653 1645.54 314.5C1652.19 309.345 1656.13 302.083 1657.35 292.712H1654.02C1652.58 301.563 1648.9 308.201 1642.96 312.625C1637.03 317.05 1629.58 319.263 1620.6 319.263C1614.5 319.263 1609.35 318.274 1605.13 316.296C1600.92 314.318 1597.48 311.61 1594.82 308.174C1592.16 304.738 1590.2 300.703 1588.92 296.07C1587.65 291.437 1586.95 286.413 1586.84 280.999ZM1655.02 277.875H1586.84C1587.18 272.253 1588.28 267.203 1590.17 262.726C1592.05 258.248 1594.52 254.422 1597.57 251.247C1600.62 248.071 1604.16 245.651 1608.21 243.984C1612.26 242.318 1616.61 241.485 1621.26 241.485C1626.81 241.485 1631.68 242.449 1635.9 244.375C1640.11 246.301 1643.63 248.931 1646.46 252.262C1649.28 255.594 1651.42 259.473 1652.86 263.897C1654.3 268.322 1655.02 272.982 1655.02 277.875ZM1727.36 263.976H1730.68C1730.68 255.021 1727.91 248.514 1722.37 244.453C1716.82 240.392 1709.29 238.362 1699.75 238.362C1694.43 238.362 1689.94 238.987 1686.28 240.236C1682.62 241.485 1679.63 243.099 1677.3 245.077C1674.98 247.055 1673.31 249.242 1672.31 251.637C1671.32 254.032 1670.82 256.323 1670.82 258.509C1670.82 262.882 1671.65 266.37 1673.31 268.973C1674.98 271.576 1677.58 273.606 1681.13 275.064C1683.57 276.105 1686.34 277.042 1689.44 277.876C1692.55 278.709 1696.15 279.593 1700.25 280.53C1703.91 281.364 1707.51 282.197 1711.06 283.029C1714.61 283.862 1717.74 284.982 1720.45 286.387C1723.17 287.793 1725.39 289.589 1727.11 291.776C1728.82 293.962 1729.68 296.825 1729.68 300.365C1729.68 303.801 1728.82 306.717 1727.11 309.111C1725.4 311.493 1723.16 313.493 1720.54 314.968C1717.88 316.478 1714.91 317.571 1711.64 318.247C1708.37 318.924 1705.18 319.263 1702.08 319.263C1691.99 319.263 1684.26 317.154 1678.88 312.938C1673.51 308.721 1670.82 302.083 1670.82 293.024H1667.49C1667.49 303.125 1670.4 310.517 1676.22 315.203C1682.04 319.888 1690.66 322.23 1702.08 322.23C1705.74 322.23 1709.42 321.839 1713.14 321.059C1716.85 320.278 1720.18 319.003 1723.12 317.232C1726.03 315.487 1728.47 313.136 1730.27 310.361C1732.09 307.549 1733.01 304.114 1733.01 300.053C1733.01 296.2 1732.21 293.077 1730.6 290.682C1728.99 288.288 1726.88 286.309 1724.28 284.747C1721.67 283.186 1718.74 281.962 1715.47 281.077C1712.18 280.187 1708.88 279.328 1705.57 278.5C1701.5 277.497 1697.43 276.508 1693.35 275.533C1689.86 274.699 1686.62 273.71 1683.62 272.565C1680.74 271.419 1678.44 269.78 1676.72 267.646C1675 265.511 1674.14 262.466 1674.14 258.509C1674.14 257.781 1674.37 256.479 1674.81 254.605C1675.25 252.73 1676.31 250.83 1677.97 248.904C1679.63 246.978 1682.18 245.26 1685.62 243.75C1689.05 242.241 1693.77 241.485 1699.75 241.485C1703.85 241.485 1707.59 241.902 1710.98 242.735C1714.36 243.568 1717.27 244.895 1719.71 246.718C1722.14 248.54 1724.03 250.856 1725.36 253.667C1726.69 256.479 1727.36 259.915 1727.36 263.976V263.976ZM1804.35 263.976H1807.67C1807.67 255.021 1804.9 248.514 1799.36 244.453C1793.81 240.392 1786.28 238.362 1776.74 238.362C1771.42 238.362 1766.93 238.987 1763.27 240.236C1759.61 241.485 1756.62 243.099 1754.29 245.077C1751.97 247.055 1750.3 249.242 1749.3 251.637C1748.31 254.032 1747.81 256.323 1747.81 258.509C1747.81 262.882 1748.64 266.37 1750.3 268.973C1751.97 271.576 1754.57 273.606 1758.12 275.064C1760.56 276.105 1763.33 277.042 1766.43 277.876C1769.54 278.709 1773.14 279.593 1777.24 280.53C1780.9 281.364 1784.5 282.197 1788.05 283.029C1791.6 283.862 1794.73 284.982 1797.45 286.387C1800.16 287.793 1802.38 289.589 1804.1 291.776C1805.82 293.962 1806.67 296.825 1806.67 300.365C1806.67 303.801 1805.82 306.717 1804.1 309.111C1802.39 311.493 1800.15 313.493 1797.53 314.968C1794.87 316.478 1791.9 317.571 1788.63 318.247C1785.36 318.924 1782.17 319.263 1779.07 319.263C1768.98 319.263 1761.25 317.154 1755.87 312.938C1750.5 308.721 1747.81 302.083 1747.81 293.024H1744.48C1744.48 303.125 1747.39 310.517 1753.21 315.203C1759.03 319.888 1767.65 322.23 1779.07 322.23C1782.73 322.23 1786.42 321.839 1790.13 321.059C1793.84 320.278 1797.17 319.003 1800.11 317.232C1803.02 315.487 1805.46 313.136 1807.26 310.361C1809.09 307.549 1810 304.114 1810 300.053C1810 296.2 1809.2 293.077 1807.59 290.682C1805.98 288.288 1803.88 286.309 1801.27 284.747C1798.67 283.186 1795.73 281.962 1792.46 281.077C1789.17 280.187 1785.87 279.328 1782.56 278.5C1778.49 277.497 1774.42 276.508 1770.34 275.533C1766.85 274.699 1763.61 273.71 1760.61 272.565C1757.73 271.419 1755.43 269.78 1753.71 267.646C1751.99 265.511 1751.13 262.466 1751.13 258.509C1751.13 257.781 1751.36 256.479 1751.8 254.605C1752.24 252.73 1753.3 250.83 1754.96 248.904C1756.62 246.978 1759.17 245.26 1762.61 243.75C1766.05 242.241 1770.76 241.485 1776.74 241.485C1780.85 241.485 1784.59 241.902 1787.97 242.735C1791.35 243.568 1794.26 244.895 1796.7 246.718C1799.14 248.54 1801.02 250.856 1802.35 253.667C1803.68 256.479 1804.35 259.915 1804.35 263.976H1804.35Z" fill="#222222"/>
<path d="M1408.8 104.712C1408.8 102.632 1407.64 100.666 1405.79 99.6262L1356.79 71.4262C1355.98 70.9632 1355.05 70.7322 1354.13 70.6162H1353.67C1352.74 70.6162 1351.82 70.9632 1351.01 71.4262L1302.01 99.6262C1300.16 100.666 1299 102.631 1299 104.712L1299.12 180.529C1299.12 181.569 1299.69 182.609 1300.62 183.072C1301.54 183.65 1302.7 183.65 1303.51 183.072L1332.63 166.429C1334.48 165.389 1335.64 163.424 1335.64 161.344V125.862C1335.64 123.782 1336.79 121.817 1338.64 120.777L1351.01 113.611C1351.93 113.033 1352.97 112.801 1354.01 112.801C1355.05 112.801 1356.09 113.033 1356.9 113.611L1369.27 120.777C1371.12 121.817 1372.27 123.781 1372.27 125.862V161.344C1372.27 163.424 1373.43 165.389 1375.28 166.429L1404.4 183.072C1405.33 183.65 1406.48 183.65 1407.41 183.072C1408.33 182.609 1408.91 181.569 1408.91 180.529L1408.8 104.712Z" fill="#333333"/>
<path d="M1644.34 0.34725C1643.42 -0.11575 1642.26 -0.11575 1641.45 0.34725C1640.53 0.92525 1639.95 1.84925 1639.95 2.88925V78.0143C1639.95 78.7073 1639.6 79.4003 1638.91 79.8633C1638.21 80.2093 1637.52 80.2093 1636.83 79.8633L1624.58 72.8133C1623.68 72.3019 1622.66 72.0329 1621.63 72.0329C1620.6 72.0329 1619.58 72.3019 1618.68 72.8133L1569.68 101.129C1567.83 102.169 1566.67 104.134 1566.67 106.214V162.73C1566.67 164.81 1567.83 166.776 1569.68 167.816L1618.68 196.132C1619.58 196.644 1620.6 196.913 1621.63 196.913C1622.66 196.913 1623.68 196.644 1624.58 196.132L1673.58 167.816C1675.43 166.776 1676.59 164.811 1676.59 162.73V21.8442C1676.59 19.6482 1675.43 17.6842 1673.58 16.6432L1644.34 0.34725H1644.34ZM1639.83 144.123C1639.83 144.701 1639.6 145.163 1639.14 145.394L1622.38 155.102C1622.15 155.216 1621.89 155.276 1621.63 155.276C1621.37 155.276 1621.11 155.216 1620.88 155.102L1604.12 145.394C1603.66 145.163 1603.43 144.585 1603.43 144.123V124.706C1603.43 124.128 1603.66 123.666 1604.12 123.435L1620.88 113.726C1621.11 113.612 1621.37 113.553 1621.63 113.553C1621.89 113.553 1622.15 113.612 1622.38 113.726L1639.14 123.435C1639.6 123.665 1639.83 124.244 1639.83 124.706V144.123Z" fill="#333333"/>
<path d="M1807.42 124.244C1809.27 123.204 1810.31 121.239 1810.31 119.158V105.405C1810.31 103.325 1809.15 101.36 1807.42 100.32L1758.76 72.1204C1757.86 71.6091 1756.85 71.3403 1755.81 71.3403C1754.78 71.3403 1753.76 71.6091 1752.87 72.1204L1703.86 100.435C1702.01 101.475 1700.86 103.44 1700.86 105.521V162.037C1700.86 164.117 1702.01 166.082 1703.86 167.122L1752.52 194.86C1754.37 195.9 1756.56 195.9 1758.3 194.86L1787.77 178.45C1788.69 177.987 1789.27 176.947 1789.27 175.907C1789.27 174.867 1788.69 173.827 1787.77 173.364L1738.53 145.048C1737.61 144.471 1737.03 143.546 1737.03 142.506V124.823C1737.03 123.783 1737.61 122.743 1738.53 122.28L1753.91 113.496C1754.36 113.213 1754.88 113.063 1755.41 113.063C1755.94 113.063 1756.46 113.213 1756.91 113.496L1772.28 122.28C1773.21 122.858 1773.79 123.782 1773.79 124.823V138.692C1773.79 139.732 1774.36 140.772 1775.29 141.234C1776.21 141.812 1777.37 141.812 1778.29 141.234L1807.42 124.244V124.244Z" fill="#333333"/>
<path d="M1755.06 121.586C1755.23 121.473 1755.43 121.413 1755.64 121.413C1755.84 121.413 1756.05 121.473 1756.22 121.586L1765.58 127.018C1765.93 127.248 1766.16 127.595 1766.16 128.058V138.922C1766.16 139.384 1765.93 139.731 1765.58 139.962L1756.22 145.394C1756.05 145.507 1755.84 145.567 1755.64 145.567C1755.43 145.567 1755.23 145.507 1755.06 145.394L1745.7 139.962C1745.35 139.731 1745.12 139.384 1745.12 138.922V128.058C1745.12 127.595 1745.35 127.248 1745.7 127.018L1755.06 121.586V121.586Z" fill="#539E43"/>
<mask id="mask0_106_34" style="mask-type:alpha" maskUnits="userSpaceOnUse" x="1433" y="71" width="110" height="125">
<path d="M1490.74 72.3513C1489.84 71.8401 1488.83 71.5713 1487.79 71.5713C1486.76 71.5713 1485.74 71.8401 1484.85 72.3513L1436.19 100.434C1434.34 101.474 1433.3 103.439 1433.3 105.519V161.805C1433.3 163.885 1434.45 165.85 1436.19 166.89L1484.85 194.975C1485.74 195.487 1486.76 195.755 1487.79 195.755C1488.83 195.755 1489.84 195.487 1490.74 194.975L1539.4 166.89C1541.25 165.85 1542.29 163.885 1542.29 161.805V105.52C1542.29 103.44 1541.13 101.475 1539.4 100.435L1490.74 72.3513Z" fill="white"/>
</mask>
<g mask="url(#mask0_106_34)">
<path d="M1490.74 72.3513C1489.84 71.8401 1488.83 71.5713 1487.79 71.5713C1486.76 71.5713 1485.74 71.8401 1484.85 72.3513L1436.19 100.434C1434.34 101.474 1433.3 103.439 1433.3 105.519V161.805C1433.3 163.885 1434.45 165.85 1436.19 166.89L1484.85 194.975C1485.74 195.487 1486.76 195.755 1487.79 195.755C1488.83 195.755 1489.84 195.487 1490.74 194.975L1539.4 166.89C1541.25 165.85 1542.29 163.885 1542.29 161.805V105.52C1542.29 103.44 1541.13 101.475 1539.4 100.435L1490.74 72.3513Z" fill="url(#paint2_linear_106_34)"/>
<path d="M1539.51 100.435L1490.62 72.3514C1490.14 72.1089 1489.64 71.9152 1489.12 71.7734L1434.34 165.621C1434.79 166.175 1435.34 166.645 1435.96 167.008L1484.85 195.093C1486.23 195.902 1487.85 196.133 1489.35 195.67L1540.78 101.592C1540.44 101.13 1539.97 100.782 1539.51 100.436V100.435Z" fill="url(#paint3_linear_106_34)"/>
<path fill-rule="evenodd" clip-rule="evenodd" d="M1539.63 166.891C1541.02 166.082 1542.06 164.695 1542.52 163.193L1488.89 71.6574C1487.5 71.4264 1486 71.5414 1484.73 72.3504L1436.19 100.32L1488.54 195.785C1489.3 195.661 1490.04 195.427 1490.74 195.092L1539.63 166.892L1539.63 166.891Z" fill="url(#paint4_linear_106_34)"/>
<path fill-rule="evenodd" clip-rule="evenodd" d="M1539.63 166.892L1490.86 194.977C1490.17 195.328 1489.43 195.562 1488.66 195.67L1489.59 197.404L1543.67 166.084V165.39L1542.29 163.078C1542.06 164.696 1541.02 166.083 1539.63 166.892V166.892Z" fill="url(#paint5_linear_106_34)"/>
<path fill-rule="evenodd" clip-rule="evenodd" d="M1539.63 166.892L1490.86 194.977C1490.17 195.328 1489.43 195.562 1488.66 195.67L1489.59 197.404L1543.67 166.084V165.39L1542.29 163.078C1542.06 164.696 1541.02 166.083 1539.63 166.892V166.892Z" fill="url(#paint6_linear_106_34)"/>
</g>
<defs>
<linearGradient id="paint0_linear_106_34" x1="668.122" y1="61.9606" x2="844.205" y2="301.096" gradientUnits="userSpaceOnUse">
<stop stop-color="#41D1FF"/>
<stop offset="1" stop-color="#BD34FE"/>
</linearGradient>
<linearGradient id="paint1_linear_106_34" x1="860.048" y1="6.51391" x2="896.271" y2="255" gradientUnits="userSpaceOnUse">
<stop stop-color="#FFEA83"/>
<stop offset="0.08333" stop-color="#FFDD35"/>
<stop offset="1" stop-color="#FFA800"/>
</linearGradient>
<linearGradient id="paint2_linear_106_34" x1="1507.62" y1="93.2874" x2="1454.28" y2="177.089" gradientUnits="userSpaceOnUse">
<stop stop-color="#41873F"/>
<stop offset="0.3288" stop-color="#418B3D"/>
<stop offset="0.6352" stop-color="#419637"/>
<stop offset="0.9319" stop-color="#3FA92D"/>
<stop offset="1" stop-color="#3FAE2A"/>
</linearGradient>
<linearGradient id="paint3_linear_106_34" x1="1480.41" y1="140.256" x2="1613.97" y2="67.6877" gradientUnits="userSpaceOnUse">
<stop offset="0.1376" stop-color="#41873F"/>
<stop offset="0.4032" stop-color="#54A044"/>
<stop offset="0.7136" stop-color="#66B848"/>
<stop offset="0.9081" stop-color="#6CC04A"/>
</linearGradient>
<linearGradient id="paint4_linear_106_34" x1="1431.52" y1="133.665" x2="1544.11" y2="133.665" gradientUnits="userSpaceOnUse">
<stop offset="0.09192" stop-color="#6CC04A"/>
<stop offset="0.2864" stop-color="#66B848"/>
<stop offset="0.5968" stop-color="#54A044"/>
<stop offset="0.8624" stop-color="#41873F"/>
</linearGradient>
<linearGradient id="paint5_linear_106_34" x1="1431.52" y1="180.335" x2="1544.11" y2="180.335" gradientUnits="userSpaceOnUse">
<stop offset="0.09192" stop-color="#6CC04A"/>
<stop offset="0.2864" stop-color="#66B848"/>
<stop offset="0.5968" stop-color="#54A044"/>
<stop offset="0.8624" stop-color="#41873F"/>
</linearGradient>
<linearGradient id="paint6_linear_106_34" x1="1560.52" y1="90.6261" x2="1531.99" y2="240.089" gradientUnits="userSpaceOnUse">
<stop stop-color="#41873F"/>
<stop offset="0.3288" stop-color="#418B3D"/>
<stop offset="0.6352" stop-color="#419637"/>
<stop offset="0.9319" stop-color="#3FA92D"/>
<stop offset="1" stop-color="#3FAE2A"/>
</linearGradient>
</defs>
</svg>
